inDegrees=no
num_controls=7
num_derivatives=13
num_iterations=153
num_multipliers=7
num_parameters=0
num_slacks=7
num_states=26
objective=0.501456
objective_accelerations=0.010398
objective_balance=0.003627
objective_effort=0.012563
objective_height=0.373953
objective_ligament=0.100915
solver_duration=1928.355085
status=Solve_Succeeded
success=true
DataType=double
version=3
OpenSimVersion=4.5
endheader
time	/jointset/ground_pelvis/pelvis_tilt/value	/jointset/ground_pelvis/pelvis_tx/value	/jointset/ground_pelvis/pelvis_ty/value	/jointset/hip_l/hip_flexion_l/value	/jointset/hip_l/hip_adduction_l/value	/jointset/hip_l/hip_rotation_l/value	/jointset/back/lumbar_extension/value	/jointset/patellofemoral_l/patellar_flexion_l/value	/jointset/knee_l/knee_flexion_l/value	/jointset/knee_l/knee_adduction_l/value	/jointset/knee_l/knee_rotation_l/value	/jointset/ankle_l/ankle_angle_l/value	/jointset/subtalar_l/subtalar_angle_l/value	/jointset/ground_pelvis/pelvis_tilt/speed	/jointset/ground_pelvis/pelvis_tx/speed	/jointset/ground_pelvis/pelvis_ty/speed	/jointset/hip_l/hip_flexion_l/speed	/jointset/hip_l/hip_adduction_l/speed	/jointset/hip_l/hip_rotation_l/speed	/jointset/back/lumbar_extension/speed	/jointset/patellofemoral_l/patellar_flexion_l/speed	/jointset/knee_l/knee_flexion_l/speed	/jointset/knee_l/knee_adduction_l/speed	/jointset/knee_l/knee_rotation_l/speed	/jointset/ankle_l/ankle_angle_l/speed	/jointset/subtalar_l/subtalar_angle_l/speed	/forceset/tau_hip_flexion_l	/forceset/tau_hip_adduction_l	/forceset/tau_hip_rotation_l	/forceset/tau_knee_flexion_l	/forceset/tau_ankle_angle_l	/forceset/tau_subtalar_angle_l	/forceset/tau_lumbar_extension	lambda_cid13_p0	lambda_cid13_p1	lambda_cid13_p2	lambda_cid13_p3	lambda_cid13_p4	lambda_cid13_p5	lambda_cid14_p0	/jointset/ground_pelvis/pelvis_tilt/accel	/jointset/ground_pelvis/pelvis_tx/accel	/jointset/ground_pelvis/pelvis_ty/accel	/jointset/hip_l/hip_flexion_l/accel	/jointset/hip_l/hip_adduction_l/accel	/jointset/hip_l/hip_rotation_l/accel	/jointset/back/lumbar_extension/accel	/jointset/patellofemoral_l/patellar_flexion_l/accel	/jointset/knee_l/knee_flexion_l/accel	/jointset/knee_l/knee_adduction_l/accel	/jointset/knee_l/knee_rotation_l/accel	/jointset/ankle_l/ankle_angle_l/accel	/jointset/subtalar_l/subtalar_angle_l/accel	gamma_cid13_p0	gamma_cid13_p1	gamma_cid13_p2	gamma_cid13_p3	gamma_cid13_p4	gamma_cid13_p5	gamma_cid14_p0
0.5	0.01239884861289615	-0.006385401516144295	0.9104756539840246	0.4109615514496797	-0.2507904745524451	-0.2945092661135847	-0.7251698105485049	0.3525632979170087	0.3525632979166429	-0.04672344925384902	-0.1745162973357151	-0.01571068716093562	0.04144684796475939	0.08394610837663352	-0.1085622027245795	-0.03489893052779631	0.1961601636492459	-0.01980538370232454	0.07419781287664391	-0.8560032836537423	0.2516390728014223	0.2516390728011907	0.03626586359158278	4.407349344578212e-05	-0.02018192363710716	-0.02905794770627142	-0.1734059811999166	0.02132615708916757	-0.00738254581644822	-0.1107811200749406	0.0941299373610248	0.03857240058254983	0.2604345259622103	-14.79440107207777	-16.26342102357301	4.539310588900222	-0.1184563347967895	-707.3087340883704	-83.33650077301492	-23.72468267944617	0.09722323411651804	0.2389371081010692	0.06012721256623586	-0.6561277420371511	-0.0241562178510564	-0.09780099950362718	0.8219266043138339	-0.3844305543092268	-0.3844305543092182	-0.1889851149369315	0.0001724519371875703	0.1302416871727758	0.02580574785403096	2.274825591369623e-09	-2.693917397235103e-09	-1.426136589348875e-09	-4.282899643316796e-09	6.131016325152466e-09	4.556979060184383e-10	-2.232399334062363e-10
0.51	0.01324291268112712	-0.007458955298438028	0.9101297291567815	0.4128902775293576	-0.250989654616464	-0.2937723456590617	-0.7336874879322975	0.355060113543447	0.3550601135432517	-0.04637015070165596	-0.1745158982507845	-0.01590599652794899	0.04115764354091015	0.08486013755671415	-0.1061354025240813	-0.03427697164838959	0.1895481703078047	-0.0200208179595961	0.07317094056728474	-0.8474246379190301	0.2476770841460816	0.2476770841459982	0.03440154031142539	3.573785091009808e-05	-0.01888110616046892	-0.02877311901985522	-0.1770680186284011	0.02226629587437612	-0.007411160015503006	-0.1091542596962902	0.09259022293518571	0.03934553341651483	0.2644652588490844	-15.30804678069003	-16.5117096542814	4.581696136685271	-0.07616830534856657	-708.3653535620979	-83.41280491430712	-23.73281077589196	0.08750735202228851	0.2465232949846707	0.06459099781443269	-0.6692674860119191	-0.01876506010592601	-0.1074308840048586	0.891966835876863	-0.4091282459939963	-0.4091282459717803	-0.1840022870598795	-0.001337587966159085	0.1298285726238525	0.03129454488247715	2.35641038579963e-09	-1.48362753521014e-09	-1.282812241326435e-09	-4.358987788264054e-09	6.624948237675373e-09	4.794181701462697e-10	-8.594262590241468e-11
0.52	0.0140959199595707	-0.008507846714934649	0.9097902960727696	0.4147517772044568	-0.2511906946291458	-0.2930461540351013	-0.7421161522031778	0.3575159002383623	0.3575159002383381	-0.04603526465276356	-0.174515582725404	-0.01608833236125307	0.04087158202709443	0.08573475041953602	-0.1036297295651568	-0.03360058188153082	0.1827148827337921	-0.02017737343449614	0.07205204676381327	-0.8382006610712397	0.2434332864968398	0.2434332864969042	0.03258336293107821	2.736158368622812e-05	-0.0175872168952506	-0.02842936569955624	-0.1807300560568866	0.02320643465958781	-0.00743977421455303	-0.1075273993176421	0.0910505085093463	0.04011866625048292	0.2684959917359574	-15.82444279748405	-16.75981161900857	4.624388773856862	-0.04285815339547275	-709.4705658795629	-83.4953874278963	-23.74029402427102	0.08933997066476305	0.2547116597863315	0.07101339005664604	-0.7003865885514068	-0.01238046137675252	-0.116205298326084	0.9509928269294554	-0.4407923530894684	-0.4407923530894886	-0.1797559349748906	0.0001643269995483122	0.1288560448887986	0.03759067463058857	2.424912087939667e-09	-5.806350652563164e-10	-1.176441776962905e-09	-4.452221829828525e-09	7.06608870976723e-09	5.0325519633967e-10	4.714327745843968e-12
0.53	0.01495746208986547	-0.009531308417116158	0.9094578908337982	0.4165439125091822	-0.2513930048228203	-0.2923315826829522	-0.7504493605396533	0.3599278920075657	0.3599278920076407	-0.04571831263131016	-0.1745153338645398	-0.01625776802623285	0.04058925168566088	0.08656655727644365	-0.1010514674583549	-0.03287192536627572	0.1756801988640807	-0.02027474875137775	0.0708476068963086	-0.8283351958102169	0.2389209762377805	0.2389209762378173	0.0308160471373447	2.253935936583474e-05	-0.01630231259346894	-0.02802725628771358	-0.184300256482246	0.02414153805179441	-0.007469971395441177	-0.1059027547508013	0.08945537502171694	0.04087140056234757	0.2724390212394904	-16.35761519213593	-16.99740103285952	4.666871991728832	0.0273972818023485	-710.5243265162743	-83.56570089099222	-23.74714117460465	0.07903297231602781	0.2610540978328351	0.07507432379296512	-0.7098062948093139	-0.006928645438781144	-0.1247556428843767	1.020194937702979	-0.4630640386979403	-0.4630640387020692	-0.1738685470188	-0.0007863918946243894	0.1279484706686956	0.04293811213309338	2.458303883169716e-09	3.378462039365152e-10	-1.071447066246931e-09	-4.500138570335165e-09	7.453246895549022e-09	5.005601066472882e-10	9.110038216213043e-11
0.54	0.01582710867454982	-0.01052865337588847	0.9091330286682858	0.4182647415734819	-0.251595991285385	-0.2916294941918606	-0.7586807399111164	0.3622934379389031	0.3622934379390725	-0.0454187635968817	-0.1745151294048684	-0.01641442647862562	0.04031122584588008	0.08735564129784519	-0.09840638088331663	-0.03209196718971023	0.168453634649238	-0.02031262721205575	0.06955547455193492	-0.8178348680686227	0.2341441189233689	0.2341441189233781	0.02910276552576216	1.848134517398607e-05	-0.01503177437785354	-0.02756846536899112	-0.1878704569076143	0.02507664144400451	-0.007500168576338285	-0.1042781101839666	0.08786024153408646	0.04162413487421555	0.2763820507430168	-16.89388288416556	-17.23481216989607	4.709742216094782	0.08903865303177312	-711.6321275378136	-83.64322619729718	-23.75336487759485	0.08079540356353304	0.2680765534336107	0.08127372231872358	-0.7387626575776586	-0.000481090136032108	-0.1337437936998873	1.07796532304368	-0.4937017641599488	-0.4937017641599439	-0.1689490985446993	0.0003171690252564757	0.1259828276555605	0.04892697600655047	2.45285067500999e-09	1.27346401696825e-09	-9.679744659495316e-10	-4.497917020309737e-09	7.780679998604787e-09	4.685103355493601e-10	1.727611863643199e-10
0.55	0.0167044459936542	-0.01149923050843088	0.9088162193404445	0.4199123685584562	-0.2517990583713352	-0.2909407462236658	-0.7668040257701418	0.3646099200144579	0.3646099200144961	-0.04513606851443493	-0.1745149479245416	-0.01655845827164459	0.04003806914819642	0.08810676819726572	-0.0956994788018095	-0.03126137830463028	0.1610395337815835	-0.02029093037710699	0.06817895249043657	-0.8067254689916552	0.2291085049458005	0.2291085049457914	0.02744553801826408	1.735627166591968e-05	-0.01377859097824307	-0.02705408398731434	-0.1912558455609812	0.02595270464999958	-0.00753092914377771	-0.1027801727617904	0.08637789707738323	0.04233357821133688	0.280160078683826	-17.39217876413041	-17.45868649476206	4.748873280774086	0.1511812417553292	-712.662180669727	-83.71185299899943	-23.75897949374624	0.07151280579474985	0.2734311597077371	0.08523107454671343	-0.7475682443376436	0.004973573527902952	-0.1418810603686495	1.141952411716812	-0.5150599442945367	-0.5150599442972523	-0.1627161515414222	-0.0003963725071369191	0.1243854493424421	0.05401201647981398	2.47651679678425e-09	2.096890115878879e-09	-8.991881343012618e-10	-4.524302409646498e-09	8.068489764828886e-09	4.415315511867937e-10	2.600731245239357e-10
0.5600000000000001	0.01758914287628375	-0.01244245179531848	0.9085079718220429	0.421484887646153	-0.2520016127882952	-0.290266218405683	-0.77481331259606	0.3668747322042904	0.3668747322041911	-0.04486966702199859	-0.1745147915003441	-0.0166900783600217	0.03977031992377578	0.08882755400322716	-0.0929352117523559	-0.030379605301799	0.1534320551947979	-0.02021009341345494	0.06671144450918427	-0.7950350614469466	0.2238101417786612	0.223810141778634	0.02584404752320325	1.347011942614142e-05	-0.01254943344948667	-0.02648697071637434	-0.1946412342143738	0.02682876785599783	-0.007561689711226583	-0.1012822353396281	0.08489555262067695	0.04304302154846049	0.2839381066246169	-17.89391660772818	-17.68240180699069	4.788485761604196	0.205212626529244	-713.7517170501421	-83.78858107461078	-23.7640038828849	0.07472718487169495	0.279549547022914	0.09151054586898884	-0.7774382014038849	0.01134693560462361	-0.1519409776506743	1.194167016591873	-0.5462516020740997	-0.5462516020741041	-0.1578016960572526	-0.0002350467210859622	0.121177653484761	0.05947335385920263	2.535126114479293e-09	2.785686157844187e-09	-8.720253250319467e-10	-4.585016126217886e-09	8.308751526854986e-09	4.206379509066612e-10	3.541664234324628e-10
0.5700000000000001	0.01848090169918113	-0.01335776278311263	0.9082087921764012	0.4229804061116207	-0.2522030604659732	-0.2896067985402559	-0.7827028546754775	0.3690852836995902	0.3690852836995847	-0.0446189866171472	-0.1745146720731031	-0.0168095331353293	0.03950850568510692	0.08952046247236524	-0.0901192105430545	-0.02944808316917551	0.1456410101826266	-0.02006945953195751	0.06515757979538904	-0.7827835816887818	0.2182576654065476	0.218257665406596	0.0243021285934445	1.00033426106267e-05	-0.01134704631011937	-0.02586752569987345	-0.1978631742581362	0.02766797365724365	-0.007592631026777352	-0.09985709045503011	0.08345352180381682	0.04371451665743849	0.2875607356635717	-18.38002808043181	-17.89224829066728	4.825745547741988	0.2762800058926594	-714.7515440360575	-83.85135963136995	-23.76845835837433	0.06601004139018128	0.2837907735694728	0.09521083449982472	-0.7845319993711767	0.01691829478150022	-0.1593510740111544	1.254104367565918	-0.5661195174768594	-0.5661195174654957	-0.1508720791181352	-0.0004646045610735149	0.1189409588619628	0.06443231477035349	2.586692632496881e-09	3.410264162331862e-09	-8.633125523937548e-10	-4.638644831413418e-09	8.554561577395179e-09	4.088561659684942e-10	4.342123174714581e-10
